<svg width="32" height="67" viewBox="0 0 32 67" fill="none" xmlns="http://www.w3.org/2000/svg">
<path d="M12.2117 1.96643C8.23289 12.1985 4.33088 22.5 0.39049 32.7668C0.088253 33.5464 0.861697 33.8362 1.23239 33.7921C4.08922 33.445 6.61206 31.0715 9.04816 29.2244C11.4843 27.3774 14.002 25.3573 16.4422 23.3182C21.3227 19.2401 25.9995 14.7788 30.6862 10.2858L28.9429 9.38226C25.2328 16.5228 21.7163 23.9071 18.1103 31.1734C14.5043 38.4398 10.8971 45.6963 7.29234 52.9725C5.25928 57.0776 3.22622 61.1826 1.2181 65.3242C0.900292 65.9751 1.05155 66.5473 1.64221 66.6826C2.23287 66.8179 3.0979 66.3388 3.4469 65.6632C10.7618 51.2464 17.88 36.6166 25.084 22.0749C27.1171 17.9699 29.2099 13.9065 31.1796 9.73017C31.4465 9.16733 31.4344 8.61506 30.8836 8.41353C30.2754 8.19016 29.6108 8.62984 29.1548 9.09944C24.9024 13.5088 20.4068 17.4903 15.8786 21.3154C13.6335 23.2151 11.361 25.0584 9.05997 26.8353C7.91007 27.7287 6.75776 28.6023 5.59754 29.467C4.43733 30.3317 3.31163 31.3122 1.98458 31.476L2.82648 32.5013C6.7388 22.2286 10.684 12.0014 14.5591 1.70382C14.8436 0.947006 14.1085 0.691827 13.7422 0.715169C13.1517 0.751127 12.4985 1.22942 12.2117 1.96643Z" fill="#EF790C"/>
</svg>
