<svg width="34" height="23" viewBox="0 0 34 23" fill="none" xmlns="http://www.w3.org/2000/svg">
<path d="M30.3696 11.2903V11.2303C32.0264 10.3803 33.0366 8.71028 33.0366 6.62028C33.0366 3.16028 30.4302 1.16028 26.7832 1.16028H20.2267C19.5498 1.16028 19.2164 1.49028 19.2164 2.16028V3.96028V11.7403C19.2164 13.2403 18.8224 14.6903 18.1658 15.8903C18.0041 16.1903 17.8223 16.4803 17.6202 16.7503L15.7816 14.9003C15.3472 14.4703 14.8622 14.5303 14.4379 15.0203L14.0439 15.4103C13.6095 15.9003 13.6095 16.3803 14.1046 16.8003L15.9129 18.5903C14.6602 19.6203 12.9125 20.1703 11.195 20.1703C6.65902 20.1703 3.25448 16.4703 3.25448 11.7403C3.25448 7.04028 6.65902 3.55028 11.195 3.55028C14.2561 3.55028 16.8221 5.12028 18.1759 7.57028V3.05028C16.3069 1.63028 13.9126 0.790283 11.195 0.790283C4.82037 0.790283 0.132812 5.55028 0.132812 11.7403C0.132812 17.9903 4.75975 22.9303 11.195 22.9303C13.8318 22.9303 16.1958 22.1103 18.0647 20.6203L19.2467 21.7903L19.9034 22.4403C19.9438 22.4803 19.9842 22.5203 20.0246 22.5503C20.3681 22.8303 20.7217 22.8103 21.0652 22.5603C21.1359 22.5103 21.2066 22.4503 21.2773 22.3803L21.6713 21.9603C22.0956 21.4703 22.0653 20.9903 21.5804 20.5603L19.8024 18.8103C21.045 17.3203 21.9138 15.4403 22.227 13.3903C22.2674 13.1503 22.2876 12.9003 22.3179 12.6603C22.3381 12.3603 22.3583 12.0603 22.3583 11.7503C22.3583 11.2103 22.328 10.6903 22.2573 10.1703C22.2472 10.1203 22.2472 10.0803 22.2371 10.0303V3.77028H26.7428C28.7936 3.77028 29.9958 5.05028 29.9958 6.93028C29.9958 8.81028 28.7633 10.1803 26.8034 10.1803H23.318C23.3786 10.6903 23.4089 11.2203 23.4089 11.7603C23.4089 12.0603 23.3988 12.3703 23.3786 12.6703H27.1166C29.3896 12.6703 30.8545 14.1603 30.8545 16.3403C30.8545 18.5203 29.4401 19.9803 27.1166 19.9803H22.4694C22.8937 20.4203 23.0149 20.8803 23.0352 21.2003C23.0554 21.5403 22.9846 22.0503 22.5401 22.5903H26.9549C30.7838 22.5903 33.9458 20.5303 33.9458 16.4903C33.9256 14.0803 32.6426 11.9603 30.3696 11.2903Z" fill="#F27321"/>
</svg>
